<?xml version="1.0" encoding="UTF-8"?>
<svg xmlns="http://www.w3.org/2000/svg" version="1.1" viewBox="0 0 2500 500">
  <defs>
    <style>
      .cls-1 {
        fill: #231f20;
      }
    </style>
  </defs>
  <!-- Generator: Adobe Illustrator 28.7.0, SVG Export Plug-In . SVG Version: 1.2.0 Build 136)  -->
  <g>
    <g id="Layer_1">
      <g>
        <path class="cls-1" d="M1592.3,264.9c-.4,24.6-20,58.6-99.3,58.6h-10.4c-82.1,0-101.3-43.4-101.3-72.5v-5.9c0-29.5,19-71.7,101.3-71.7h10.4c77.6,0,98.3,31,99.2,56.8h-56.4c-2.5-6.6-11.8-20.3-48-20.3-39.8,0-50.2,19.7-50.2,36.5v2.5c0,15.8,10.6,37.5,50.4,37.5,38.2,0,46.3-15.4,48.2-21.7h56.1Z"/>
        <path class="cls-1" d="M1774.8,285.6v37.9s-155.8,0-155.8,0v-145.3s54.1,0,54.1,0v107.4s101.8,0,101.8,0Z"/>
        <path class="cls-1" d="M2004.6,245.1v5.9c0,30.5-20.3,72.5-104.7,72.5h-10.2c-84.1,0-104.7-42-104.7-72.5v-5.9c0-30.9,20.6-71.7,104.7-71.7h10.2c84.1,0,104.7,40.8,104.7,71.7ZM1894.9,209.8c-45,0-53.6,21.1-53.6,36.9v2.5c0,15.8,9.5,37.5,53.6,37.5,44.8,0,53.4-21.7,53.4-37.5v-2.5c0-15.8-8.6-36.9-53.4-36.9Z"/>
        <path class="cls-1" d="M2027.5,247.5v-71.5s53.8,0,53.8,0v70.9c0,16.4,5.9,38.1,46.4,38.1h1.1c40.5,0,45.7-21.7,45.7-38.1v-70.9s53.8,0,53.8,0v71.5c0,28.9-10.6,76-96.8,76h-6.6c-89.6,0-97.5-47.3-97.5-76Z"/>
        <path class="cls-1" d="M2245.8,214.9v-36.7s200.8,0,200.8,0v36.7s-73.5,0-73.5,0v108.6s-53.8,0-53.8,0v-108.6s-73.5,0-73.5,0Z"/>
        <path class="cls-1" d="M2430.7,323.5v-40.8s58.3,0,58.3,0v40.8s-58.3,0-58.3,0Z"/>
      </g>
      <g>
        <path class="cls-1" d="M295.6,487.5c-39.3.2-76.4-4.4-111.1-13.6-34.7-9.3-65.2-22-91.4-38.4-26.2-16.3-46.8-35.3-61.9-57-15.2-21.7-22.8-44.9-22.9-69.7l-.5-112.6c-.1-24.7,7.3-48,22.2-69.9,14.9-21.8,35.2-40.9,60.8-57.2,25.7-16.3,55.8-29.3,90.5-38.9,34.7-9.6,71.6-14.5,111-14.7l741.3-3.5c39.3-.2,76.2,4.3,110.5,13.3,34.4,9.1,64.5,21.5,90.3,37.3,25.8,15.8,46.3,34.5,61.4,56,15.1,21.5,23.1,44.7,23.9,69.3l-562.1,2.6-.5-107.2c0-7.2-5.8-10.7-17.2-10.7l-153.4.7c-11.4,0-17.1,3.6-17.1,10.8l1.6,331.7c0,7.2,5.8,10.8,17.2,10.7l153.4-.7c11.4,0,17.1-3.7,17.1-10.9l-.5-106.5,562.1-2.6c-.6,24.3-8.6,47.1-23.8,68.5-15.3,21.4-35.7,40.3-61.4,56.6-25.7,16.3-55.7,29.1-90,38.5-34.3,9.4-70.7,14.2-109.3,14.3l-740.2,3.5Z"/>
        <rect class="cls-1" x="628.4" y="308.2" width="72.3" height="72.3" transform="translate(-1.6 3.1) rotate(-.3)"/>
      </g>
    </g>
  </g>
</svg>