<?xml version="1.0" encoding="UTF-8"?>
<svg xmlns="http://www.w3.org/2000/svg" version="1.1" viewBox="0 0 2500 506.2">
  <defs>
    <style>
      .cls-1 {
        font-family: Cristone-Regular, Cristone;
        font-size: 507.9px;
      }
    </style>
  </defs>
  <!-- Generator: Adobe Illustrator 28.7.0, SVG Export Plug-In . SVG Version: 1.2.0 Build 136)  -->
  <g>
    <g id="Layer_1">
      <text class="cls-1" transform="translate(1008.8 449)"><tspan x="0" y="0">ON GOD</tspan></text>
      <path d="M507.6,481.7h-23.3c-.6-.1-1.2-.4-1.8-.4-17.5-1-34.9-3.3-52.2-5.8-20.5-2.9-40.7-6.9-60.9-11.6-31-7.2-61.5-16.4-91.4-27.2-24.1-8.8-47.8-18.7-71-29.7-19.6-9.3-38.7-19.4-57.4-30.4-16.2-9.5-31.9-19.7-47.3-30.4-13.6-9.5-26.8-19.5-39.4-30.3-8.9-7.6-17.7-15.4-25.9-23.8-6.7-6.9-13.5-13.9-19.6-21.4-7.6-9.4-14.9-19-20.9-29.6-1.8-3.1-1.5-5.6,1.3-8,8.4-7.4,16.9-14.8,25.6-22,20.9-17.4,42.9-33.5,65.4-48.8,28.2-19.2,57.5-36.7,87.8-52.6,23.9-12.6,48.4-23.9,73.5-34,20.9-8.5,42.1-15.9,63.7-22.5,19-5.7,38.2-10.7,57.6-14.6,16.9-3.4,34-6.3,51.2-8.2,14.9-1.7,29.8-3.3,44.8-3.5,1.6,0,3.2.2,4.7-.5,11.9,0,23.8,0,35.7,0,.7.1,1.4.4,2.1.4,15.1,0,30.2,1.8,45.2,3.7,18.8,2.4,37.5,5.7,56,10,31.4,7.3,62.2,16.6,92.4,27.9,23,8.6,45.6,18.2,67.9,28.6,14.9,7,29.6,14.4,44.2,22.1,13.7,7.2,27.2,14.8,40.6,22.7,23.3,13.7,46,28.2,68.1,43.7,15.3,10.8,30.6,21.7,45.1,33.6,1.4,1.2,4.3,2.1,3.6,4-.8,2.1-3.7,1-5.6,1-118.3,0-236.5,0-354.8,0-1.2,0-2.4,0-3.6,0-2.2,0-3-.9-3-3.1,0-2,.5-3,2.8-3.3,7-.9,13.9-1.9,20.8-3.1,14.2-2.5,28.3-5.1,42.4-7.7,31.2-5.8,62.1-12.7,92.1-23.3,2.6-.9,5.2-1.7,7.7-3.4-17.5-11.2-35.6-20.4-54-29-20.4-9.5-41.4-17.7-62.8-24.8-29-9.6-58.5-17-88.5-22.8-18-3.5-36.1-5.3-54.4-5.6-6.9-.1-13.8.1-20.8,0-11.4-.3-22.8.8-34,2.4-21.1,3.1-41.7,8.5-61.7,15.9-23.1,8.5-45.2,19.3-66.5,31.6-23.9,13.8-46.5,29.6-68.3,46.6-19,14.9-36.9,30.9-54.5,47.4-2.4,2.2-2,3.6.2,5.4,6.8,5.4,13.4,11.2,20.3,16.5,27.4,21,56.1,40.1,86.7,56.2,23.7,12.5,48.2,23.2,74,30.8,29.2,8.6,58.7,14,89.4,12,12.7-.8,25.3-2,37.9-3.7,24.2-3.2,48.1-8.1,71.9-13.7,43.6-10.3,86.4-23.5,128.7-38.1,5.2-1.8,10.4-3.8,16.5-6-5.7-.9-10.4-1.6-15-2.2-13.5-1.9-27-3.7-40.5-5.6-11-1.5-22-3.1-33-4.6-12.1-1.7-24.2-3.3-36.3-4.9-11.4-1.5-22.7-3.1-34.1-4.6-12-1.6-24-3.1-35.9-4.7-10.5-1.4-21.1-2.7-31.6-4.1-10.5-1.3-21.1-2.6-31.6-3.9-11.6-1.4-23.3-2.8-34.9-4.1-6.1-.7-12.3-1.1-18.4-1.5-2-.1-2.4-1.3-2.3-2.9,0-1.6.5-2.6,2.3-2.6,1.5,0,2.9,0,4.4,0,48.8.4,97.6-.4,146.4.6,55.8,1.1,111.6-.2,167.5.7,60.2,1,120.4-.6,180.6.8,17.5.4,35,0,52.4,0,3.5,0,7,.2,10.5.3v.7c-12.4,12.7-25.3,24.7-38.5,36.5-14.2,12.6-28.8,24.7-43.8,36.4-25.2,19.6-51.7,37.5-79.1,53.9-23.6,14.1-47.9,26.9-73,38.1-19.8,8.9-39.8,17-60.3,24-35.9,12.2-72.5,21.6-110,27.1-17.6,2.6-35.2,4.7-52.9,5.8-5.5.4-11.1,0-16.6,1Z"/>
    </g>
  </g>
</svg>