<?xml version="1.0" encoding="UTF-8"?>
<svg xmlns="http://www.w3.org/2000/svg" version="1.1" viewBox="0 0 2502.7 505.8">
  <defs>
    <style>
      .cls-1 {
        fill: #fcf3f5;
      }

      .cls-2 {
        fill: #fdf6f7;
      }

      .cls-3 {
        fill: #fcf2f3;
      }

      .cls-4 {
        fill: #fdfafb;
      }

      .cls-5 {
        fill: #db1a2e;
      }

      .cls-6 {
        fill: #d60818;
      }

      .cls-7 {
        fill: #da1a2a;
      }

      .cls-8 {
        fill: #ef99a7;
      }

      .cls-9 {
        fill: #fceff1;
      }

      .cls-10 {
        fill: #fdf9fa;
      }

      .cls-11 {
        fill: #d30002;
      }

      .cls-12 {
        fill: #d8081f;
      }

      .cls-13 {
        fill: #fbe8eb;
      }

      .cls-14 {
        fill: #fdf8f9;
      }

      .cls-15 {
        fill: #fcf3f4;
      }

      .cls-16 {
        fill: #fdf4f5;
      }

      .cls-17 {
        fill: #fae4e7;
      }

      .cls-18 {
        fill: #d80020;
      }

      .cls-19 {
        fill: #ed8a98;
      }

      .cls-20 {
        fill: #fdf5f6;
      }

      .cls-21 {
        fill: #fdf7f8;
      }

      .cls-22 {
        fill: #fefefe;
      }

      .cls-23 {
        fill: #fbe9eb;
      }

      .cls-24 {
        fill: #fcf0f2;
      }

      .cls-25 {
        fill: #fdf7f7;
      }
    </style>
  </defs>
  <!-- Generator: Adobe Illustrator 28.7.0, SVG Export Plug-In . SVG Version: 1.2.0 Build 136)  -->
  <g>
    <g id="Layer_1">
      <g>
        <path class="cls-22" d="M1243.8,655.2c-424.1,0-848.1,0-1272.2.3-12.7,0-15.6-2.9-15.6-15.5.4-228.4.4-456.7,0-685.1,0-11.6,2.3-13.9,13.9-13.9,849.3.3,1698.5.3,2547.8,0,11.6,0,13.9,2.3,13.9,13.9-.4,228.9-.4,457.9,0,686.8,0,11.6-2.3,13.9-13.9,13.9-424.6-.4-849.3-.3-1273.9-.3Z"/>
        <path class="cls-18" d="M1246.4,648.2c-421.2,0-842.4,0-1263.6.3-14.8,0-19.8-2.8-19.7-18.9.6-222.1.6-444.3,0-666.4,0-15,3.6-18.5,18.6-18.4,842.9.4,1685.9.4,2528.8,0,13.9,0,17.7,3,17.7,17.3-.5,222.7-.5,445.4,0,668.1,0,14.7-3.2,18.4-18.3,18.4-421.2-.5-842.4-.4-1263.6-.4Z"/>
        <path class="cls-22" d="M605.1-38.8c202.6,0,405.2.1,607.8-.3,13.8,0,17.8,2.9,17.8,17.3-.5,212.5-.5,425,0,637.5,0,14.8-4.6,17.1-18.1,17.1-405.2-.4-810.4-.4-1215.7,0-13.9,0-17.8-3.1-17.7-17.4.5-212.5.5-425,0-637.5,0-14.8,4.6-17,18-17,202.6.4,405.2.3,607.8.3Z"/>
        <path class="cls-22" d="M1332.4,254.1c0-61.4.6-122.8-.4-184.2-.3-15.7,4.7-18.9,18.9-18,29.3,1.8,58.7-1.9,88,3.7,42.4,8.2,71.9,32.3,81.5,73.7,19.5,84.3,20.1,169.4-.7,253.6-11.1,45-43.7,68.6-89.4,72.1-29.3,2.2-58.8.6-88.2,1.4-12.7.3-9.6-8.1-9.6-14.8-.1-62.5,0-125.1,0-187.6Z"/>
        <path class="cls-22" d="M1899.3,339.4c2.3,0,4.5,0,6.8,0,25.3,0,25.1,0,27.4,25.2,1.3,13.8,4.8,26.9,18.4,34,10.5,5.5,21.1,3.8,30.5-2.7,12.9-8.8,18.4-30.7,13.1-47.4-7.6-23.9-25.6-39.3-43.9-54.4-25.3-20.8-51.1-40.8-69.3-68.7-27.3-41.8-26.7-107,1.7-145,23.5-31.5,55.4-40.6,92.9-34.9,36.2,5.4,56.7,28.4,66.7,61.5,5.6,18.7,17.3,42.8,6.7,56.4-9.8,12.5-35.9,2.6-54.8,4.1-6.4.5-9.1-2-9.3-8.6-.3-9-.8-18.1-2.4-26.9-2.8-16.3-14.6-26.1-29-25.1-13.4.9-23,11.7-25.1,27.3-3.2,22.9,6.3,40.8,22,55.7,23.3,22.1,48.5,42.3,70.9,65.3,39.2,40.1,49.7,88.2,33.8,141.7-13,43.8-51.8,69.8-99.5,67.6-45.9-2.1-75-27.6-85-74.6-.9-4.4-2.1-8.8-2.9-13.2q-7.2-37.4,30.3-37.4Z"/>
        <path class="cls-22" d="M1681.3,254.4c0-62.5.3-125.1-.3-187.6-.1-11.9,3.1-15.1,15-14.9,46.4.7,92.8.7,139.2,0,11.5-.2,14.6,3.6,13.8,14.3-.9,12.3-.8,24.8,0,37.2.6,9.2-3.1,11.4-11.7,11.2-23.2-.5-46.4.2-69.6-.3-8.8-.2-11.7,2.4-11.6,11.4.5,27,.5,54.1,0,81.1-.2,9,2.9,11.7,11.6,11.4,14.7-.6,29.4.3,44.1-.3,9.2-.4,13.3,1.9,12.7,12-.8,14-.9,28.2,0,42.2.6,10.3-3.8,12.2-12.8,11.9-15.3-.6-30.6.1-45.8-.3-7.3-.2-9.8,2.4-9.8,9.7.3,30.4.4,60.9,0,91.3-.1,9.3,4.6,9.6,11.6,9.6,24.3-.2,48.7.2,73-.3,8.6-.2,12.2,1.9,11.7,11.1-.7,13.5-.8,27.1,0,40.5.5,9.6-3.7,10.9-11.9,10.9-48.7-.3-97.3-.6-146,.2-12,.2-13.6-4.4-13.5-14.6.4-62.5.2-125.1.2-187.6Z"/>
        <path class="cls-22" d="M2088.2,253.4c0-61.5.5-122.9-.4-184.4-.2-14.6,4.3-17.6,18-17.3,45.3.9,90.6.8,135.8,0,12.1-.2,15.9,3.3,14.6,15-1.7,15.5,6.7,36.3-3.5,45.2-8.7,7.6-29.1,1.8-44.3,2.5-14.5.7-33.8-6.4-42.2,3.1-7.2,8-2.4,26.8-2.6,40.8-.2,16.3.3,32.7-.2,49-.2,8,2.4,11,10.6,10.7,15.3-.5,30.6.2,45.8-.3,8.5-.3,12.4,2,11.9,11.3-.9,17.4,5.4,39.3-3,50.9-8.3,11.3-31.6,3.5-48.3,3.4-12.6,0-18,2.1-17.3,16.4,1.3,27,.8,54.1.1,81.2-.3,10.2,2.4,13.8,13.2,13.4,23.7-.8,47.6.2,71.3-.5,9.8-.3,12.8,2.8,12.2,12.4-.8,13.5-.5,27.1,0,40.6.3,7.5-2.5,9.6-9.8,9.6-50.4-.2-100.8-.4-151.1.1-11.3.1-11.1-5.7-11-13.7.1-63.1,0-126.3,0-189.4Z"/>
        <path class="cls-22" d="M2293.5,253.4c0-62,.4-124-.3-186-.2-13,3.6-16.5,16.1-15.6,14.6,1.1,29.5,1,44.1,0,12.1-.9,14.9,3.3,14.9,15-.5,103.1.1,206.2-.7,309.4-.1,15.3,4,19.4,18.7,18.1,15.7-1.3,31.7,0,47.5-.4,7.1-.2,10.8,1.9,9.7,9.5,0,.6,0,1.1,0,1.7-1.1,16.7,7,38.3-3.5,48.5-8.3,8-30,2.5-45.7,2.6-28.3.2-56.6-.6-84.9.3-12.3.4-16.3-2.4-16.2-15.5.8-62.5.4-125.1.4-187.6Z"/>
        <path class="cls-22" d="M1566.6,254.3c0-62.5.3-125-.3-187.5-.1-11.7,2.7-15.7,14.8-14.9,15.8,1.1,31.7.9,47.5,0,10.3-.5,13.5,2.3,13.4,13-.7,39.4-.3,78.8-.3,118.3,0,86.2-.2,172.3.3,258.5,0,11.9-3,15.7-15,14.9-15.2-1-30.6-1.1-45.8,0-11.9.8-15.1-2.9-14.9-14.8.6-62.5.3-125,.3-187.5Z"/>
        <path class="cls-25" d="M1496.8,562.3c-9.9,3.1-16.2.7-18.6-9-.9-3.5-2.7-6.4-6.9-5.6-3.9.7-3,4.3-2.9,6.8.3,6.2-1.6,9.4-8.5,8.9-7.3-.5-5.4-5.7-5.8-9.8-.2-2.2,0-4.5,0-6.7-.1-27.9,5.3-32.3,32.7-26.6,10.3,2.2,14.2,8.7,10.7,18.6-4.4,12.5-4.6,12.4-.6,23.4Z"/>
        <path class="cls-21" d="M1411.1,563.6c-14.1.1-24.6-8.8-25.1-21.6-.5-12.9,9.4-22.1,24-22.3,14.3-.2,24.6,8.6,24.8,21.4.2,12.9-9.8,22.4-23.7,22.5Z"/>
        <path class="cls-20" d="M2350.3,542.5c-5.8,7,3.9,20.3-7.6,19.9-10.1-.3-4.8-12.5-4.9-19.1-.1-7.6-5.2-18.5,3.5-22.5,10.9-5,13.9,8.4,20.5,13.5,1.6,1.3,2.8,3,4.4,4.7,3.6-3.3,1.9-6.7,2.1-9.8.4-4.4-.7-9.5,6.5-9,7,.5,5.5,5.9,5.7,10,.2,7.3.3,14.6,0,21.9-.2,4.1,1.9,9.6-4.4,11.1-4.8,1.1-8.6-.6-11.7-4.7-4.1-5.3-8.8-10.1-14-16Z"/>
        <path class="cls-16" d="M1929.3,551.5c-7.1-2.2-10.8-3.3-14.4-4.4-7.4-2.4-13.5-5.9-12.9-15.1.5-7.8,6.2-10.1,12.4-11.6,8.7-2.1,19.2-1.5,23.6,5.1,5.4,8.1-7.6,4.4-9.9,9.8,7.1,2.9,15.8,5,15.1,15.4-.5,7.4-6.1,10.6-12.3,12-10.2,2.3-20.2,2-28.7-5.2-.9-.8-1.4-3.1-1-4.1,1.4-3,4.6-3.9,7.1-2.6,5.7,3,11.2,5.2,20.9.8Z"/>
        <path class="cls-9" d="M1800.4,551.7c5.9,3.5,12.1,1.6,17.8,2.1,3.5.3,7,.6,6.4,5.4-.4,3.6-3.2,4.2-6.1,4.2-7.9,0-15.8-.2-23.6.2-7.2.4-10.5-2.4-10-9.7.2-2.8,0-5.6,0-8.4,0-28.3.6-28.8,29.3-25.5,3.9.5,8.4-.1,8,5.7-.3,4.9-4.3,3.8-7.5,4.3-4.6.7-10-2.1-13.9,2.5.5,9.2,14.9.2,13.6,10.3-1,8.1-10.8.3-14.2,8.8Z"/>
        <path class="cls-2" d="M2443.1,532.2c-6.4,2.6-10.2,4.2-15.1-.5-5.4-5.2-12.5-4-14.4,3.7-1.6,6.4-4.1,15,5.9,18.4,1.9.6,5,.7,6.4-.5,4.4-3.5-1.4-3.5-2.3-5.3-1.4-2.7-2.2-6.1,1.1-6.8,4.9-1,10.7-1.9,14.9,0,7.4,3.2,3,10.8,3.5,16.5.7,7-3.8,4.5-7.7,3.5-1.9-.5-4.3.5-6.4,1.1-13.9,4-24.9.5-30-13.5-3.9-10.5-1.1-20.5,9.8-25.6,13-6.2,25-5.6,34.3,9.1Z"/>
        <path class="cls-15" d="M1867.5,550.9c-3-1.1-5.9-2.3-9-3.2-9.2-2.6-18.5-6.4-15.4-17.8,2.9-10.6,13.2-10.8,22.5-10,5.5.5,14,1.7,13.4,7.3-1,8.6-9.1,1.5-13.8,2.6-1.6.4-3.2.6-6,1.2,3.7,5.2,9,4.2,13.2,5.4,6.7,1.9,11.4,6.1,11.8,12.7.5,7.9-5.8,11.9-12.6,13.7-4.8,1.2-10.2,1.2-15,.4-5.7-.9-15.1-2-13.3-9.1,2.2-9,9,.3,13.8,0,3.3-.3,6.6,0,9.9,0l.6-3Z"/>
        <path class="cls-20" d="M1565.7,551.5c-5.3-1.9-7.8-2.8-10.3-3.6-7.6-2.4-15.4-4.7-16.3-14.5-.6-7,4.4-10,9.7-12.1,9-3.6,17.7-1.8,25.9,2.8,1,.6,2,3.3,1.6,3.9-1.3,1.6-3.6,3.9-5,3.6-4.9-.9-9.5-3.6-14.6-.2,2.6,4.7,7.6,4.1,11.6,4.8,7.9,1.5,12.1,6,12,13.7,0,8.2-6.2,11.6-13.2,12.9-7.8,1.5-15.7,1.3-23-2.7-2.9-1.6-6.7-3.3-4.5-7.4,1.8-3.5,5.3-3.4,8.6-1.2,4.5,2.8,9.2,3.9,17.6,0Z"/>
        <path class="cls-9" d="M1640.7,539.3c0,20.3-3.5,24.3-20.9,24.4-17,0-21.8-5.1-22.1-24,0-3.4.2-6.8,0-10.1-.4-5.9.9-9.6,8-9.6,7.4,0,7.2,4.3,8.1,9.7,1.3,7.9-6.2,21.8,6.7,22.4,15.5.7,6.7-14.3,8.8-22.3,1.1-4.1-.8-9.9,6.3-9.4,5.6.4,4.9,5.1,5,8.9.1,3.4,0,6.7,0,10.1Z"/>
        <path class="cls-10" d="M2059.2,539.9c0,20.7-3.6,24.1-22.6,23.8-13.1-.2-20.2-5.2-18.9-19.3.5-5.6.2-11.2.1-16.8,0-4.4,1-7.4,6.5-7.5,5.9-.1,8.1,2.3,7.9,8-.2,5,.1,10.1,0,15.2-.2,6,1.8,10.1,8.4,9.8,5.5-.3,7.6-4,7.5-9.2,0-5.1,0-10.1,0-15.2,0-3.9-.2-8,5.6-8.4,6.4-.4,5.4,4.2,5.6,7.9.1,3.9,0,7.9,0,11.8Z"/>
        <path class="cls-3" d="M1683.5,563.7c-12.6,0-20.6-5.5-23.9-16.4-2.9-9.6,0-18.1,8.4-23.6,9.9-6.4,20.4-5.7,30.2.7,2.7,1.7,6.1,4.6,3.7,8.2-2.4,3.6-6.8,4-10.2.9-5.4-4.8-11.1-7.4-15.2.1-3,5.3-3.4,12.5.8,17.6,5.3,6.2,10.4,4,15.1-2.1,2.7-3.5,8.1-3.1,10.3.2,2.6,3.9-1.3,7.2-4.5,9.6-4.7,3.4-9.9,5.2-14.7,4.8Z"/>
        <path class="cls-20" d="M2263.1,547.1c4-10.3,6.6-16.9,9.3-23.5,2-5,6.5-4.1,10-3.1,5.4,1.6,1.8,5.6.9,8-3.7,9.9-8,19.5-12,29.3-1.7,4.2-4.5,5.7-9,5.6-5.1,0-8.1-1.3-9.9-6.7-2.9-9-7-17.6-10.4-26.4-1.2-3.1-6.1-7.3-.3-9.7,4.3-1.8,10.2-2.3,12.7,4.2,2.4,6.1,4.8,12.2,8.7,22.2Z"/>
        <path class="cls-3" d="M1749.8,563.8c-15.7-.2-23.9-5.6-27.3-16.2-3.1-9.4-.1-17.7,8.3-23.5,9.3-6.4,19-6.1,28.5-.7,3.3,1.9,7.1,5.4,5.4,9.1-1.8,3.9-6.9,4-10.1,1.1-5.5-5.2-10.7-6.6-15.4.2-3.8,5.6-3.7,12,.7,17.1,5.3,6.1,10.5,4.4,15.4-1.5,3-3.6,8.3-3.5,10.4-.5,2.6,3.8-2,7-4.7,9.6-4.2,4.2-9.8,5.2-11.3,5.2Z"/>
        <path class="cls-24" d="M1346.8,534.1c3.3,4.4,7.6,3,11.4,3.5,2.7.3,4,1.8,4.3,4.2.3,2.5-.7,4.9-3.3,4.7-9.1-.7-13.5,2.4-12.7,12.2.4,4.4-3.7,4.6-7.3,4.8-5.2.3-7-2.4-6.9-7.1,0-9,.4-18-.1-27-.4-7.6,3-10.7,9.9-9.2,9.1,1.9,24.3-5.9,26.1,4.8,1.9,11.4-15.7-.9-21.4,9.1Z"/>
        <path class="cls-24" d="M1975,532.3c1.4,5.9,5.3,4.8,8.4,5,3.5.3,7.2.3,7.3,4.9,0,4.9-4.1,4.7-7.3,4.5-6.8-.5-9,2.7-8.5,9,.5,5.7-2.1,8-8,7.7-6.9-.3-6.3-5-6.4-9.4,0-2.8,0-5.6,0-8.4,0-25.9,7.1-31.5,32.4-25.6,3,.7,5.5,1.2,5.7,4.7.3,4.8-3.1,5-6.7,5.3-5.7.5-11.9-1.5-17,2.3Z"/>
        <path class="cls-23" d="M2077.2,543c0-3-.4-4.8,0-6.3,1.7-5.9-5.1-16.1,7.5-16.6,13.1-.4,7.7,10.1,7.8,15.9.1,10.8-.6,20.6,15.2,17.5,2.8-.6,5.5.8,5.6,4.5.2,4.6-2.8,5.5-6.5,5.5-7.3,0-14.7.9-21.9-.2-15.1-2.3-4.2-14.7-7.7-20.3Z"/>
        <path class="cls-14" d="M2152.5,542.7c5.5-7.8-5.8-22.1,9.2-21.9,13.2.2,5.9,13.4,5.9,19.9,0,10.8,3.7,14,13.7,12.8,3.2-.4,7.1-.5,7.2,4.5,0,4.6-3.1,5.3-6.8,5.3-6.8,0-13.6.8-20.2-.2-16.1-2.3-1.1-15.6-9-20.5Z"/>
        <path class="cls-1" d="M2223.1,541.1c-4.6,6.9,6.4,21.2-7.5,21.5-15,.3-7-14.4-7.2-21.9-.2-6.6-6.9-19.6,5.9-19.9,15-.4,4.4,13.7,8.7,20.4Z"/>
        <path class="cls-4" d="M2319.4,542c-4.8,6.7,6.8,21.2-8.8,20.8-14.5-.4-6.5-14.1-6.6-21.3-.2-7-7.3-20.8,7.1-20.7,15.3.1,3.5,14.4,8.4,21.2Z"/>
        <path class="cls-11" d="M2298.1,459.6h140.4c0,.5,0,1.1,0,1.6h-141.1c.2-.5.5-1.1.7-1.6Z"/>
        <path class="cls-19" d="M2415.3,93.3c-4.6-.3-7.9-2.2-9.4-6.8,1-1.9,1.1-4.1,1.5-6.1,1.2-4.8,1.2-9.6,0-14.4-.5-2-.4-4.2-1.5-6,1.1-3.4,3.4-5.6,6.8-6.5,5,4.2,12.4,1.3,17.4,5.7.8,1.4,1.1,2.9,1,4.5-2.6,7-16.9,7.9-10.2,19.6,0,4.4-2.1,7.6-5.7,10Z"/>
        <path class="cls-17" d="M2429.6,60c-6.3-.5-13.8,2.2-16.9-6.5,10.3-2.8,19.9-3.2,26.8,6.9,6,8.8,5.6,17.6-.3,26.2-3,.8-4.2-1-4.9-3.4.2-8.1,1.7-16.4-4.7-23.2Z"/>
        <path class="cls-5" d="M2415.3,93.3c1-3.5,2.1-7,3.1-10.5-.7-5-3.5-11.8,6.6-8,3.4,4.7,10.2,8.8,2.8,15.5-3.5,3.7-7.9,4-12.5,3Z"/>
        <path class="cls-13" d="M2405.9,60c1.1,1.1,2.1,2.2,3.2,3.3.1,6.6.1,13.3,0,19.9-1.1,1.1-2.1,2.2-3.2,3.3-7-8.8-7.3-17.7,0-26.6Z"/>
        <path class="cls-8" d="M2427.9,90.3c2.9-6.2-3.7-9.1-4.9-13.9,1.2-3.1,3.3-4.6,6.7-3.9,3.9,2.6,4.6,7,6.5,10.8,1,1.1,2.1,2.1,3.1,3.2-2.6,4.7-5.3,9.5-11.4,3.7Z"/>
        <path class="cls-18" d="M582.7,128.1c166.6.4,322.7,5.1,478.7,13.7,16.9.9,33.9,2.3,50.1,7.9,29.7,10.4,37.3,30.8,21.7,58.2-16.9,29.7-41.5,53.3-64.3,78.1-45.4,49.4-88.7,100.7-137.1,147.3-20,19.2-44.3,28.8-72,29.6-113.2,3.5-226.3,2.4-339.5,2.3-66.8,0-133.5-1.6-200.3-1.5-19.2,0-34-5-44.2-22.1-5.1-8.6-12.3-16-18.4-24.1-3.3-4.4-8.5-9-5.5-14.9,3.1-6.1,10.1-3.8,15.5-3.8,38.5-.1,77,0,115.5,0,21.7,0,25-2.9,25-24,0-49,.1-98.1,0-147.1,0-20.2-3.5-23.8-23.9-23.2-88.8,2.4-177.6,4.7-266.4,7.9-17.9.6-31.9-3.7-42.7-18.4-7.7-10.4-16.7-19.9-25-29.8-3.1-3.8-9-6.8-7.3-12.4,2.1-7,9.4-5.5,14.6-5.8,49.7-3,99.4-5.9,149.1-8.3,128.9-6.3,257.9-9,376.5-9.5Z"/>
        <path class="cls-18" d="M1406.7,254.3c0-42.3.4-84.5-.2-126.8-.2-11.9,3.3-14.2,14.6-12.1,18.7,3.4,28.1,15.5,29.6,32.2,6.3,70.8,6.2,141.8,0,212.6-1.7,19.8-13.2,29.4-30.9,32.9-11,2.1-13.4-1.5-13.3-12,.5-42.3.2-84.5.2-126.8Z"/>
        <path class="cls-12" d="M1403.4,541.8c.4-5.4-.4-12.3,7.7-12.1,6.7.2,6.9,6.2,6.8,11.2,0,5.4.6,12.5-6.9,12.9-8,.5-7.2-6.6-7.6-12Z"/>
        <path class="cls-17" d="M2429.5,73.3c-2.2,1-4.4,2.1-6.5,3.1-6.4-1.3-2.8,4.4-4.5,6.4-11.8-15.1,5-14.7,11-20.1,4.4-.2,5.2,2.7,5.1,6.1-.1,3-1.8,4.8-5.1,4.6Z"/>
        <path class="cls-7" d="M2429.5,73.3c5.4-3.6,6.2-7.1,0-10.7,0-.9.1-1.8.2-2.7,12.8,4.9,11.5,13.6,6.5,23.4-4.9-1.6-7.4-4.7-6.7-10Z"/>
        <path class="cls-6" d="M2409.2,83.2c-4.6-6.6-4.7-13.3,0-19.9,5,6.6,5,13.3,0,19.9Z"/>
        <path class="cls-22" d="M597.1,299.4c0-24.2-.1-48.5,0-72.7.1-19.2,5.2-24.5,23.9-24.3,68.5.7,136.9,1.6,205.4,2.5,3.9,0,7.9.3,11.8,1,36.8,6.7,47.2,28.5,28.6,60.7-21.8,38-44,75.8-66,113.8-7.1,12.3-17.2,18.8-31.7,18.7-50.4-.1-100.8-.3-151.1,0-15.7.1-21.1-8-21-22,0-25.9,0-51.9,0-77.8Z"/>
      </g>
    </g>
  </g>
</svg>